<svg width="608" height="105" viewBox="0 0 608 105" fill="none" xmlns="http://www.w3.org/2000/svg">
<g clip-path="url(#clip0)">
<rect y="29.2793" width="19.5211" height="37.9577" fill="#FEFEFE"/>
<rect x="28.1963" y="19.5215" width="19.5211" height="47.7183" fill="#FEFEFE"/>
<rect x="56.3945" y="9.75781" width="19.5211" height="57.4789" fill="#FEFEFE"/>
<rect x="83.5059" y="-0.00195312" width="19.5211" height="67.2394" fill="#FEFEFE"/>
<path d="M3.25391 91.0977H24.944" stroke="#C23AB6" stroke-width="6.50704" stroke-linecap="round"/>
<path d="M79.1689 91.1016H100.859" stroke="#C23AB6" stroke-width="6.50704" stroke-linecap="round"/>
<path d="M90.0127 101.943V80.2532" stroke="#C23AB6" stroke-width="6.50704" stroke-linecap="round"/>
<path d="M122.732 99V71.5262H139.047V74.566H126.196V83.1468H130.274C133.019 83.1468 135.148 83.4931 136.662 84.1857C138.175 84.8527 139.227 85.7762 139.817 86.9562C140.407 88.1105 140.702 89.4445 140.702 90.958C140.702 93.4719 139.945 95.4471 138.432 96.8837C136.918 98.2946 134.366 99 130.774 99H122.732ZM130.428 96.0371C132.891 96.0371 134.622 95.6267 135.623 94.8058C136.623 93.9593 137.123 92.6767 137.123 90.958C137.123 89.1879 136.572 87.9438 135.469 87.2255C134.366 86.5073 132.493 86.1481 129.851 86.1481H126.196V96.0371H130.428ZM149.638 78.3754H153.255L157.719 90.1114C158.103 91.1375 158.45 92.1251 158.758 93.0743C159.065 93.9978 159.296 94.8828 159.45 95.7293H159.604C159.758 95.088 160.002 94.2543 160.335 93.2282C160.669 92.1764 161.015 91.1247 161.374 90.0729L165.568 78.3754H169.224L160.335 101.847C159.617 103.797 158.681 105.349 157.526 106.503C156.397 107.658 154.833 108.235 152.832 108.235C152.216 108.235 151.677 108.196 151.216 108.119C150.754 108.068 150.356 108.004 150.023 107.927V105.234C150.305 105.285 150.638 105.336 151.023 105.387C151.434 105.439 151.857 105.464 152.293 105.464C153.473 105.464 154.422 105.131 155.141 104.464C155.884 103.797 156.462 102.912 156.872 101.809L157.949 99.077L149.638 78.3754ZM193.975 78.3754V96.1526H196.976V106.157H193.705V99H179.353V106.157H176.12V96.1526H177.775C179.545 93.7156 180.866 90.9451 181.738 87.8412C182.636 84.7116 183.098 81.5563 183.124 78.3754H193.975ZM186.125 81.0305C186.022 82.7748 185.753 84.5833 185.317 86.4559C184.881 88.3029 184.316 90.0729 183.624 91.766C182.957 93.4591 182.174 94.9213 181.277 96.1526H190.704V81.0305H186.125ZM217.449 86.8407C222.81 86.8407 225.491 88.7903 225.491 92.6895C225.491 94.6134 224.837 96.1526 223.528 97.3069C222.22 98.4356 220.142 99 217.295 99H207.944V78.3754H211.331V86.8407H217.449ZM222.105 92.8819C222.105 91.6249 221.656 90.7784 220.758 90.3423C219.886 89.8806 218.654 89.6497 217.064 89.6497H211.331V96.268H217.141C218.577 96.268 219.757 96.0115 220.681 95.4984C221.63 94.9854 222.105 94.1132 222.105 92.8819ZM267.015 83.57C267.015 84.8527 266.63 85.8531 265.86 86.5714C265.091 87.2897 264.103 87.777 262.897 88.0336V88.1875C264.18 88.3671 265.296 88.8288 266.245 89.5727C267.194 90.291 267.669 91.4197 267.669 92.9588C267.669 94.7032 267.015 96.1526 265.706 97.3069C264.424 98.4356 262.295 99 259.319 99H250.43V78.3754H259.28C260.743 78.3754 262.051 78.5422 263.205 78.8756C264.385 79.1835 265.309 79.7222 265.976 80.4918C266.668 81.2357 267.015 82.2618 267.015 83.57ZM263.59 83.9933C263.59 83.0185 263.231 82.3131 262.513 81.877C261.82 81.4152 260.678 81.1844 259.088 81.1844H253.816V86.8407H258.472C261.884 86.8407 263.59 85.8916 263.59 83.9933ZM264.167 92.9588C264.167 91.7788 263.718 90.9323 262.82 90.4193C261.923 89.9062 260.601 89.6497 258.857 89.6497H253.816V96.268H258.934C260.627 96.268 261.923 96.0243 262.82 95.5369C263.718 95.0239 264.167 94.1645 264.167 92.9588ZM301.652 78.3754V99H298.612V85.8403C298.612 85.3016 298.625 84.7372 298.651 84.1472C298.702 83.5572 298.753 82.98 298.805 82.4157H298.689L291.955 99H289.108L282.567 82.4157H282.451C282.528 83.57 282.567 84.7501 282.567 85.9557V99H279.527V78.3754H284.029L290.532 94.9597L297.15 78.3754H301.652ZM323.127 77.9906C324.897 77.9906 326.41 78.3754 327.667 79.145C328.95 79.9146 329.925 81.0048 330.592 82.4157C331.284 83.8009 331.631 85.4298 331.631 87.3025V89.3418H317.509C317.56 91.6762 318.15 93.4591 319.279 94.6904C320.433 95.8961 322.036 96.4989 324.089 96.4989C325.397 96.4989 326.551 96.3834 327.552 96.1526C328.578 95.8961 329.63 95.5369 330.707 95.0752V98.038C329.655 98.4998 328.616 98.8333 327.59 99.0385C326.564 99.2694 325.346 99.3848 323.935 99.3848C321.985 99.3848 320.254 98.9872 318.74 98.1919C317.252 97.3967 316.085 96.2167 315.239 94.6519C314.418 93.0615 314.007 91.1247 314.007 88.8416C314.007 86.5842 314.379 84.6474 315.123 83.0313C315.893 81.4152 316.957 80.1711 318.317 79.2989C319.702 78.4267 321.305 77.9906 323.127 77.9906ZM323.088 80.7611C321.472 80.7611 320.19 81.287 319.24 82.3387C318.317 83.3648 317.765 84.8014 317.586 86.6483H328.09C328.065 84.904 327.654 83.4931 326.859 82.4157C326.064 81.3126 324.807 80.7611 323.088 80.7611ZM352.08 99.3848C350.259 99.3848 348.63 99.0128 347.193 98.2689C345.782 97.525 344.667 96.3706 343.846 94.8058C343.05 93.241 342.653 91.2401 342.653 88.8031C342.653 86.2636 343.076 84.1985 343.923 82.6081C344.769 81.0176 345.911 79.8504 347.347 79.1065C348.809 78.3626 350.464 77.9906 352.311 77.9906C353.363 77.9906 354.376 78.1061 355.351 78.3369C356.326 78.5422 357.121 78.7987 357.737 79.1065L356.698 81.9155C356.082 81.6846 355.364 81.4665 354.543 81.2613C353.722 81.0561 352.952 80.9535 352.234 80.9535C348.181 80.9535 346.154 83.5572 346.154 88.7647C346.154 91.253 346.642 93.1641 347.617 94.498C348.617 95.8063 350.092 96.4604 352.042 96.4604C353.17 96.4604 354.158 96.345 355.005 96.1141C355.877 95.8832 356.672 95.601 357.39 95.2676V98.2689C356.698 98.628 355.928 98.8974 355.081 99.077C354.261 99.2822 353.26 99.3848 352.08 99.3848ZM383.458 81.2228H376.725V99H373.377V81.2228H366.72V78.3754H383.458V81.2228ZM402.037 77.9906C403.807 77.9906 405.32 78.3754 406.577 79.145C407.86 79.9146 408.834 81.0048 409.501 82.4157C410.194 83.8009 410.54 85.4298 410.54 87.3025V89.3418H396.419C396.47 91.6762 397.06 93.4591 398.189 94.6904C399.343 95.8961 400.946 96.4989 402.999 96.4989C404.307 96.4989 405.461 96.3834 406.462 96.1526C407.488 95.8961 408.539 95.5369 409.617 95.0752V98.038C408.565 98.4998 407.526 98.8333 406.5 99.0385C405.474 99.2694 404.256 99.3848 402.845 99.3848C400.895 99.3848 399.164 98.9872 397.65 98.1919C396.162 97.3967 394.995 96.2167 394.148 94.6519C393.328 93.0615 392.917 91.1247 392.917 88.8416C392.917 86.5842 393.289 84.6474 394.033 83.0313C394.803 81.4152 395.867 80.1711 397.227 79.2989C398.612 78.4267 400.215 77.9906 402.037 77.9906ZM401.998 80.7611C400.382 80.7611 399.099 81.287 398.15 82.3387C397.227 83.3648 396.675 84.8014 396.496 86.6483H407C406.975 84.904 406.564 83.4931 405.769 82.4157C404.974 81.3126 403.717 80.7611 401.998 80.7611ZM443.703 99.3848C441.882 99.3848 440.253 99.0128 438.816 98.2689C437.405 97.525 436.289 96.3706 435.469 94.8058C434.673 93.241 434.276 91.2401 434.276 88.8031C434.276 86.2636 434.699 84.1985 435.546 82.6081C436.392 81.0176 437.534 79.8504 438.97 79.1065C440.432 78.3626 442.087 77.9906 443.934 77.9906C444.986 77.9906 445.999 78.1061 446.974 78.3369C447.948 78.5422 448.744 78.7987 449.359 79.1065L448.32 81.9155C447.705 81.6846 446.987 81.4665 446.166 81.2613C445.345 81.0561 444.575 80.9535 443.857 80.9535C439.804 80.9535 437.777 83.5572 437.777 88.7647C437.777 91.253 438.265 93.1641 439.239 94.498C440.24 95.8063 441.715 96.4604 443.665 96.4604C444.793 96.4604 445.781 96.345 446.627 96.1141C447.5 95.8832 448.295 95.601 449.013 95.2676V98.2689C448.32 98.628 447.551 98.8974 446.704 99.077C445.883 99.2822 444.883 99.3848 443.703 99.3848ZM476.943 78.3754V86.9562H488.14V78.3754H491.527V99H488.14V89.8036H476.943V99H473.557V78.3754H476.943ZM512.794 78.0291C515.308 78.0291 517.168 78.5806 518.374 79.6837C519.58 80.7868 520.182 82.5439 520.182 84.9553V99H517.72L517.066 96.0756H516.912C516.014 97.2043 515.065 98.038 514.064 98.5767C513.089 99.1154 511.73 99.3848 509.986 99.3848C508.113 99.3848 506.561 98.8974 505.33 97.9226C504.098 96.9222 503.483 95.3702 503.483 93.2667C503.483 91.2145 504.291 89.6369 505.907 88.5338C507.523 87.4051 510.011 86.7894 513.372 86.6868L516.873 86.5714V85.3401C516.873 83.6214 516.501 82.4285 515.757 81.7615C515.013 81.0946 513.962 80.7611 512.602 80.7611C511.525 80.7611 510.499 80.9278 509.524 81.2613C508.549 81.5692 507.638 81.9283 506.792 82.3387L505.753 79.7991C506.651 79.3117 507.715 78.9013 508.947 78.5678C510.178 78.2087 511.461 78.0291 512.794 78.0291ZM513.795 89.034C511.23 89.1366 509.447 89.5471 508.446 90.2653C507.472 90.9836 506.984 91.9969 506.984 93.3052C506.984 94.4595 507.331 95.306 508.023 95.8447C508.741 96.3834 509.652 96.6528 510.755 96.6528C512.499 96.6528 513.949 96.1782 515.103 95.2291C516.258 94.2543 516.835 92.7665 516.835 90.7656V88.9186L513.795 89.034ZM555.604 78.3754V99H552.564V85.8403C552.564 85.3016 552.577 84.7372 552.602 84.1472C552.654 83.5572 552.705 82.98 552.756 82.4157H552.641L545.907 99H543.06L536.518 82.4157H536.403C536.48 83.57 536.518 84.7501 536.518 85.9557V99H533.479V78.3754H537.981L544.483 94.9597L551.102 78.3754H555.604ZM572.307 90.958C572.307 91.2658 572.294 91.7275 572.269 92.3432C572.243 92.9588 572.205 93.5745 572.153 94.1902C572.128 94.8058 572.102 95.2932 572.076 95.6524L583.12 78.3754H587.275V99H584.12V86.8407C584.12 86.4303 584.12 85.8916 584.12 85.2246C584.146 84.5577 584.171 83.9035 584.197 83.2622C584.223 82.5953 584.248 82.095 584.274 81.7615L573.308 99H569.113V78.3754H572.307V90.958ZM600.073 90.3038C600.021 88.2003 599.842 83.942 599.534 77.5289L599.418 74.8739L605.652 74.5276C605.678 75.0406 605.69 75.7973 605.69 76.7978C605.69 79.4657 605.562 82.6209 605.306 86.2636C605.203 87.9053 605.139 88.9571 605.113 89.4188C603.882 90.1114 602.266 90.4706 600.265 90.4962L600.073 90.3038ZM602.497 99.2309C601.65 99.2309 600.945 98.9615 600.38 98.4228C599.842 97.8585 599.572 97.1017 599.572 96.1526C599.572 95.3317 599.855 94.6391 600.419 94.0747C601.009 93.5104 601.727 93.2282 602.574 93.2282C603.395 93.2282 604.074 93.5104 604.613 94.0747C605.177 94.6391 605.46 95.3317 605.46 96.1526C605.46 97.1017 605.19 97.8585 604.652 98.4228C604.113 98.9615 603.395 99.2309 602.497 99.2309Z" fill="white"/>
<path d="M144.948 13.106C151.364 13.106 156.24 14.5945 159.576 17.5715C162.913 20.5485 164.581 24.6804 164.581 29.9671C164.581 33.714 163.708 36.922 161.963 39.5911C160.269 42.2088 157.754 44.1592 154.418 45.4424L165.043 64.4593C165.197 64.7672 165.274 65.0496 165.274 65.3062C165.274 65.7681 165.094 66.1788 164.735 66.5381C164.427 66.846 164.042 67 163.58 67H157.036C156.009 67 155.239 66.769 154.726 66.3071C154.264 65.7938 153.93 65.3319 153.725 64.9212L143.639 46.9822H133.399V64.9212C133.399 65.4858 133.194 65.9734 132.783 66.3841C132.373 66.7947 131.885 67 131.32 67H125.084C124.519 67 124.032 66.7947 123.621 66.3841C123.211 65.9734 123.005 65.4858 123.005 64.9212V15.1848C123.005 14.6202 123.211 14.1326 123.621 13.7219C124.032 13.3113 124.519 13.106 125.084 13.106H144.948ZM133.399 37.3583H144.563C147.489 37.3583 149.824 36.845 151.569 35.8185C153.314 34.7919 154.187 32.8415 154.187 29.9671C154.187 27.0928 153.314 25.168 151.569 24.1928C149.824 23.2175 147.489 22.7299 144.563 22.7299H133.399V37.3583ZM173.891 36.8194C174.096 35.7415 174.558 34.5866 175.276 33.3548C176.046 32.1229 177.099 30.968 178.433 29.8901C179.819 28.8123 181.487 27.9397 183.438 27.2724C185.439 26.5538 187.749 26.1945 190.367 26.1945C192.985 26.1945 195.346 26.5538 197.45 27.2724C199.554 27.9397 201.351 28.9406 202.839 30.2751C204.379 31.6096 205.56 33.3034 206.381 35.3565C207.202 37.3583 207.613 39.668 207.613 42.2858V64.9212C207.613 65.4858 207.408 65.9734 206.997 66.3841C206.586 66.7947 206.099 67 205.534 67H199.683C199.118 67 198.631 66.7947 198.22 66.3841C197.809 65.9734 197.604 65.4858 197.604 64.9212V62.3805C196.526 63.869 194.961 65.1522 192.908 66.2301C190.906 67.2566 188.339 67.7699 185.208 67.7699C183.001 67.7699 181.025 67.4876 179.28 66.923C177.535 66.3071 176.072 65.4602 174.892 64.3823C173.711 63.3044 172.787 62.0469 172.12 60.6097C171.504 59.1212 171.196 57.5044 171.196 55.7593C171.196 52.2176 172.453 49.446 174.969 47.4442C177.484 45.4424 180.846 44.0822 185.054 43.3636L197.604 41.2079C197.604 39.1034 196.911 37.6149 195.525 36.7424C194.139 35.8698 192.42 35.4335 190.367 35.4335C189.084 35.4335 188.083 35.6132 187.364 35.9725C186.646 36.3318 185.953 36.8194 185.285 37.4353C184.823 37.8459 184.387 38.1282 183.977 38.2822C183.617 38.4362 183.207 38.5132 182.745 38.5132H175.584C175.071 38.5132 174.635 38.3592 174.276 38.0512C173.916 37.7433 173.788 37.3326 173.891 36.8194ZM186.748 58.5309C188.493 58.5309 190.033 58.3 191.368 57.838C192.754 57.3247 193.908 56.6575 194.832 55.8362C195.756 55.015 196.449 54.0911 196.911 53.0646C197.373 52.038 197.604 50.9858 197.604 49.9079V49.138L187.133 50.9858C185.029 51.3451 183.515 51.884 182.591 52.6026C181.667 53.2699 181.205 54.1938 181.205 55.3743C181.205 56.4522 181.744 57.2478 182.822 57.761C183.951 58.2743 185.26 58.5309 186.748 58.5309ZM233.273 26.1945C234.864 26.1945 236.276 26.3485 237.508 26.6565C238.791 26.9645 239.895 27.3494 240.818 27.8114C241.794 28.2733 242.615 28.7866 243.282 29.3512C243.949 29.8645 244.488 30.3521 244.899 30.814V14.4149C244.899 13.8503 245.104 13.3626 245.515 12.952C245.926 12.5414 246.413 12.3361 246.978 12.3361H252.829C253.394 12.3361 253.881 12.5414 254.292 12.952C254.703 13.3626 254.908 13.8503 254.908 14.4149V64.9212C254.908 65.4858 254.703 65.9734 254.292 66.3841C253.881 66.7947 253.394 67 252.829 67H246.978C246.413 67 245.926 66.7947 245.515 66.3841C245.104 65.9734 244.899 65.4858 244.899 64.9212V63.1504C244.488 63.6124 243.949 64.1257 243.282 64.6903C242.615 65.2035 241.794 65.6911 240.818 66.1531C239.895 66.615 238.791 67 237.508 67.308C236.276 67.6159 234.864 67.7699 233.273 67.7699C230.707 67.7699 228.371 67.2823 226.267 66.3071C224.214 65.2805 222.443 63.946 220.955 62.3035C219.517 60.6097 218.363 58.6849 217.49 56.5292C216.669 54.3221 216.207 52.038 216.104 49.6769C216.053 48.907 216.027 48.0088 216.027 46.9822C216.027 45.9557 216.053 45.0574 216.104 44.2875C216.207 41.9265 216.669 39.668 217.49 37.5123C218.363 35.3052 219.517 33.3804 220.955 31.7379C222.443 30.0441 224.214 28.7096 226.267 27.7344C228.371 26.7078 230.707 26.1945 233.273 26.1945ZM226.113 44.8265C225.959 46.2636 225.959 47.7008 226.113 49.138C226.421 52.4743 227.448 54.8867 229.193 56.3752C230.938 57.8124 233.068 58.5309 235.583 58.5309C238.098 58.5309 240.203 57.7867 241.896 56.2982C243.641 54.8097 244.642 52.6796 244.899 49.9079C245.002 49.138 245.053 48.1628 245.053 46.9822C245.053 45.8017 245.002 44.8265 244.899 44.0566C244.642 41.3875 243.641 39.2831 241.896 37.7433C240.203 36.2034 238.098 35.4335 235.583 35.4335C233.068 35.4335 230.938 36.1778 229.193 37.6663C227.448 39.1034 226.421 41.4902 226.113 44.8265ZM275.552 64.9212C275.552 65.4858 275.347 65.9734 274.936 66.3841C274.526 66.7947 274.038 67 273.474 67H267.622C267.058 67 266.57 66.7947 266.159 66.3841C265.749 65.9734 265.544 65.4858 265.544 64.9212V29.0432C265.544 28.4786 265.749 27.991 266.159 27.5804C266.57 27.1698 267.058 26.9645 267.622 26.9645H273.474C274.038 26.9645 274.526 27.1698 274.936 27.5804C275.347 27.991 275.552 28.4786 275.552 29.0432V64.9212ZM273.859 12.3361C274.423 12.3361 274.911 12.5414 275.321 12.952C275.732 13.3626 275.937 13.8503 275.937 14.4149V20.4202C275.937 20.9848 275.732 21.4724 275.321 21.883C274.911 22.2936 274.423 22.499 273.859 22.499H267.237C266.673 22.499 266.185 22.2936 265.774 21.883C265.364 21.4724 265.159 20.9848 265.159 20.4202V14.4149C265.159 13.8503 265.364 13.3626 265.774 12.952C266.185 12.5414 266.673 12.3361 267.237 12.3361H273.859ZM303.776 26.1945C306.599 26.1945 309.139 26.6308 311.398 27.5034C313.708 28.376 315.684 29.5822 317.326 31.122C319.02 32.6618 320.355 34.4583 321.33 36.5114C322.356 38.5645 322.947 40.7716 323.101 43.1327C323.152 43.5946 323.178 44.1849 323.178 44.9035C323.178 45.622 323.178 46.3406 323.178 47.0592C323.178 47.7778 323.178 48.4964 323.178 49.215C323.178 49.8822 323.152 50.4468 323.101 50.9088C322.895 53.2699 322.305 55.477 321.33 57.5301C320.355 59.5832 319.02 61.3796 317.326 62.9195C315.684 64.408 313.708 65.5885 311.398 66.4611C309.139 67.3336 306.599 67.7699 303.776 67.7699C300.953 67.7699 298.386 67.3336 296.077 66.4611C293.818 65.5885 291.842 64.408 290.148 62.9195C288.506 61.3796 287.197 59.5832 286.222 57.5301C285.246 55.477 284.656 53.2699 284.451 50.9088C284.4 50.4468 284.348 49.8822 284.297 49.215C284.297 48.4964 284.297 47.7778 284.297 47.0592C284.297 46.3406 284.297 45.622 284.297 44.9035C284.348 44.1849 284.4 43.5946 284.451 43.1327C284.605 40.7716 285.17 38.5645 286.145 36.5114C287.171 34.4583 288.506 32.6618 290.148 31.122C291.842 29.5822 293.818 28.376 296.077 27.5034C298.386 26.6308 300.953 26.1945 303.776 26.1945ZM313.092 43.5176C312.938 41.9265 312.553 40.6176 311.937 39.5911C311.372 38.5132 310.654 37.6663 309.781 37.0503C308.909 36.4344 307.959 36.0238 306.932 35.8185C305.906 35.5618 304.854 35.4335 303.776 35.4335C302.698 35.4335 301.646 35.5618 300.619 35.8185C299.593 36.0238 298.643 36.4344 297.77 37.0503C296.898 37.6663 296.154 38.5132 295.538 39.5911C294.973 40.6176 294.614 41.9265 294.46 43.5176C294.408 43.9282 294.357 44.4415 294.306 45.0574C294.306 45.6734 294.306 46.315 294.306 46.9822C294.306 47.6495 294.306 48.3167 294.306 48.984C294.357 49.5999 294.408 50.0876 294.46 50.4468C294.614 52.038 294.973 53.3725 295.538 54.4504C296.154 55.477 296.898 56.2982 297.77 56.9141C298.643 57.5301 299.593 57.9663 300.619 58.223C301.646 58.4283 302.698 58.5309 303.776 58.5309C304.854 58.5309 305.906 58.4283 306.932 58.223C307.959 57.9663 308.909 57.5301 309.781 56.9141C310.654 56.2982 311.372 55.477 311.937 54.4504C312.553 53.3725 312.938 52.038 313.092 50.4468C313.143 50.0876 313.169 49.5999 313.169 48.984C313.169 48.3167 313.169 47.6495 313.169 46.9822C313.169 46.315 313.169 45.6734 313.169 45.0574C313.169 44.4415 313.143 43.9282 313.092 43.5176ZM371.241 13.106C375.039 13.106 378.324 13.6193 381.096 14.6458C383.919 15.6211 386.254 17.0326 388.102 18.8804C390.001 20.7282 391.438 22.9609 392.413 25.5786C393.44 28.1963 394.056 31.122 394.261 34.3556C394.466 38.1539 394.466 41.9521 394.261 45.7504C394.056 48.984 393.44 51.9097 392.413 54.5274C391.438 57.1451 390.027 59.3778 388.179 61.2256C386.331 63.0734 384.021 64.5106 381.25 65.5372C378.529 66.5124 375.321 67 371.626 67H352.224C351.659 67 351.172 66.7947 350.761 66.3841C350.35 65.9734 350.145 65.4858 350.145 64.9212V15.1848C350.145 14.6202 350.35 14.1326 350.761 13.7219C351.172 13.3113 351.659 13.106 352.224 13.106H371.241ZM383.867 34.3556C383.765 32.7132 383.431 31.199 382.866 29.8131C382.353 28.376 381.558 27.1441 380.48 26.1176C379.453 25.0397 378.144 24.2184 376.553 23.6538C374.962 23.0379 373.063 22.7299 370.856 22.7299H360.539V57.3761H371.241C373.345 57.3761 375.167 57.0938 376.707 56.5292C378.247 55.9132 379.53 55.092 380.557 54.0654C381.583 53.0389 382.353 51.807 382.866 50.3699C383.431 48.9327 383.765 47.3929 383.867 45.7504C384.073 41.9521 384.073 38.1539 383.867 34.3556ZM401.66 46.9822C401.66 44.1079 402.096 41.4132 402.969 38.8981C403.842 36.3318 405.099 34.1247 406.742 32.2769C408.384 30.3777 410.36 28.8892 412.67 27.8114C415.031 26.7335 417.649 26.1945 420.523 26.1945C423.397 26.1945 425.989 26.7335 428.299 27.8114C430.66 28.8379 432.662 30.2494 434.304 32.0459C435.947 33.791 437.204 35.8698 438.077 38.2822C439.001 40.6433 439.463 43.1327 439.463 45.7504V49.215C439.463 49.7796 439.258 50.2672 438.847 50.6778C438.436 51.0884 437.949 51.2938 437.384 51.2938H411.669C411.669 52.4743 411.9 53.5265 412.362 54.4504C412.875 55.323 413.542 56.0672 414.364 56.6831C415.185 57.2991 416.135 57.761 417.212 58.069C418.29 58.377 419.394 58.5309 420.523 58.5309C422.166 58.5309 423.5 58.377 424.527 58.069C425.553 57.7097 426.4 57.2734 427.067 56.7601C427.632 56.3495 428.094 56.0672 428.453 55.9132C428.812 55.7593 429.3 55.6823 429.916 55.6823H436.075C436.64 55.6823 437.128 55.8876 437.538 56.2982C438 56.7088 438.205 57.1964 438.154 57.761C438.103 58.4796 437.692 59.4035 436.922 60.5327C436.204 61.6619 435.1 62.7655 433.612 63.8434C432.123 64.9212 430.275 65.8451 428.068 66.615C425.912 67.385 423.397 67.7699 420.523 67.7699C417.649 67.7699 415.031 67.2823 412.67 66.3071C410.36 65.2805 408.384 63.8434 406.742 61.9956C405.099 60.1478 403.842 57.9663 402.969 55.4513C402.096 52.8849 401.66 50.0619 401.66 46.9822ZM420.523 35.4335C419.035 35.4335 417.751 35.6645 416.673 36.1264C415.647 36.5371 414.774 37.1017 414.056 37.8203C413.337 38.4875 412.773 39.2574 412.362 40.13C412.003 40.9512 411.772 41.7468 411.669 42.5167H429.069C428.966 41.7468 428.761 40.9512 428.453 40.13C428.196 39.2574 427.735 38.4875 427.067 37.8203C426.451 37.1017 425.604 36.5371 424.527 36.1264C423.5 35.6645 422.166 35.4335 420.523 35.4335ZM461.345 52.5256C461.345 54.1168 461.756 55.4 462.577 56.3752C463.45 57.2991 465.041 57.761 467.351 57.761H472.047C472.612 57.761 473.099 57.9663 473.51 58.377C473.921 58.7876 474.126 59.2752 474.126 59.8398V64.9212C474.126 65.4858 473.921 65.9734 473.51 66.3841C473.099 66.7947 472.612 67 472.047 67H466.35C461.525 67 457.804 65.8451 455.186 63.5354C452.62 61.1743 451.336 57.5814 451.336 52.7566V36.2034H446.255C445.69 36.2034 445.203 35.9981 444.792 35.5875C444.382 35.1769 444.176 34.6893 444.176 34.1247V29.0432C444.176 28.4786 444.382 27.991 444.792 27.5804C445.203 27.1698 445.69 26.9645 446.255 26.9645H451.336V14.4149C451.336 13.8503 451.542 13.3626 451.952 12.952C452.363 12.5414 452.851 12.3361 453.415 12.3361H459.267C459.831 12.3361 460.319 12.5414 460.729 12.952C461.14 13.3626 461.345 13.8503 461.345 14.4149V26.9645H471.277C471.842 26.9645 472.329 27.1698 472.74 27.5804C473.151 27.991 473.356 28.4786 473.356 29.0432V34.1247C473.356 34.6893 473.151 35.1769 472.74 35.5875C472.329 35.9981 471.842 36.2034 471.277 36.2034H461.345V52.5256ZM500.415 36.2034C497.335 36.2034 495.102 36.8964 493.717 38.2822C492.382 39.6167 491.715 41.8238 491.715 44.9035V64.9212C491.715 65.4858 491.51 65.9734 491.099 66.3841C490.688 66.7947 490.201 67 489.636 67H483.785C483.22 67 482.732 66.7947 482.322 66.3841C481.911 65.9734 481.706 65.4858 481.706 64.9212V29.0432C481.706 28.4786 481.911 27.991 482.322 27.5804C482.732 27.1698 483.22 26.9645 483.785 26.9645H489.636C490.201 26.9645 490.688 27.1698 491.099 27.5804C491.51 27.991 491.715 28.4786 491.715 29.0432V30.814C493.049 29.5822 494.461 28.6326 495.949 27.9653C497.489 27.2981 499.491 26.9645 501.955 26.9645H505.419C505.984 26.9645 506.472 27.1698 506.882 27.5804C507.293 27.991 507.498 28.4786 507.498 29.0432V34.1247C507.498 34.6893 507.293 35.1769 506.882 35.5875C506.472 35.9981 505.984 36.2034 505.419 36.2034H500.415ZM530.915 26.1945C533.739 26.1945 536.279 26.6308 538.538 27.5034C540.847 28.376 542.823 29.5822 544.466 31.122C546.16 32.6618 547.494 34.4583 548.47 36.5114C549.496 38.5645 550.086 40.7716 550.24 43.1327C550.292 43.5946 550.317 44.1849 550.317 44.9035C550.317 45.622 550.317 46.3406 550.317 47.0592C550.317 47.7778 550.317 48.4964 550.317 49.215C550.317 49.8822 550.292 50.4468 550.24 50.9088C550.035 53.2699 549.445 55.477 548.47 57.5301C547.494 59.5832 546.16 61.3796 544.466 62.9195C542.823 64.408 540.847 65.5885 538.538 66.4611C536.279 67.3336 533.739 67.7699 530.915 67.7699C528.092 67.7699 525.526 67.3336 523.216 66.4611C520.958 65.5885 518.982 64.408 517.288 62.9195C515.646 61.3796 514.337 59.5832 513.361 57.5301C512.386 55.477 511.796 53.2699 511.591 50.9088C511.539 50.4468 511.488 49.8822 511.437 49.215C511.437 48.4964 511.437 47.7778 511.437 47.0592C511.437 46.3406 511.437 45.622 511.437 44.9035C511.488 44.1849 511.539 43.5946 511.591 43.1327C511.745 40.7716 512.309 38.5645 513.284 36.5114C514.311 34.4583 515.646 32.6618 517.288 31.122C518.982 29.5822 520.958 28.376 523.216 27.5034C525.526 26.6308 528.092 26.1945 530.915 26.1945ZM540.231 43.5176C540.077 41.9265 539.693 40.6176 539.077 39.5911C538.512 38.5132 537.793 37.6663 536.921 37.0503C536.048 36.4344 535.099 36.0238 534.072 35.8185C533.046 35.5618 531.993 35.4335 530.915 35.4335C529.838 35.4335 528.785 35.5618 527.759 35.8185C526.732 36.0238 525.783 36.4344 524.91 37.0503C524.038 37.6663 523.293 38.5132 522.677 39.5911C522.113 40.6176 521.754 41.9265 521.6 43.5176C521.548 43.9282 521.497 44.4415 521.446 45.0574C521.446 45.6734 521.446 46.315 521.446 46.9822C521.446 47.6495 521.446 48.3167 521.446 48.984C521.497 49.5999 521.548 50.0876 521.6 50.4468C521.754 52.038 522.113 53.3725 522.677 54.4504C523.293 55.477 524.038 56.2982 524.91 56.9141C525.783 57.5301 526.732 57.9663 527.759 58.223C528.785 58.4283 529.838 58.5309 530.915 58.5309C531.993 58.5309 533.046 58.4283 534.072 58.223C535.099 57.9663 536.048 57.5301 536.921 56.9141C537.793 56.2982 538.512 55.477 539.077 54.4504C539.693 53.3725 540.077 52.038 540.231 50.4468C540.283 50.0876 540.308 49.5999 540.308 48.984C540.308 48.3167 540.308 47.6495 540.308 46.9822C540.308 46.315 540.308 45.6734 540.308 45.0574C540.308 44.4415 540.283 43.9282 540.231 43.5176ZM569.082 64.9212C569.082 65.4858 568.877 65.9734 568.466 66.3841C568.056 66.7947 567.568 67 567.003 67H561.152C560.587 67 560.1 66.7947 559.689 66.3841C559.279 65.9734 559.073 65.4858 559.073 64.9212V29.0432C559.073 28.4786 559.279 27.991 559.689 27.5804C560.1 27.1698 560.587 26.9645 561.152 26.9645H567.003C567.568 26.9645 568.056 27.1698 568.466 27.5804C568.877 27.991 569.082 28.4786 569.082 29.0432V64.9212ZM567.388 12.3361C567.953 12.3361 568.441 12.5414 568.851 12.952C569.262 13.3626 569.467 13.8503 569.467 14.4149V20.4202C569.467 20.9848 569.262 21.4724 568.851 21.883C568.441 22.2936 567.953 22.499 567.388 22.499H560.767C560.203 22.499 559.715 22.2936 559.304 21.883C558.894 21.4724 558.688 20.9848 558.688 20.4202V14.4149C558.688 13.8503 558.894 13.3626 559.304 12.952C559.715 12.5414 560.203 12.3361 560.767 12.3361H567.388ZM593.148 52.5256C593.148 54.1168 593.559 55.4 594.38 56.3752C595.252 57.2991 596.844 57.761 599.153 57.761H603.85C604.414 57.761 604.902 57.9663 605.313 58.377C605.723 58.7876 605.929 59.2752 605.929 59.8398V64.9212C605.929 65.4858 605.723 65.9734 605.313 66.3841C604.902 66.7947 604.414 67 603.85 67H598.152C593.328 67 589.606 65.8451 586.989 63.5354C584.422 61.1743 583.139 57.5814 583.139 52.7566V36.2034H578.058C577.493 36.2034 577.005 35.9981 576.595 35.5875C576.184 35.1769 575.979 34.6893 575.979 34.1247V29.0432C575.979 28.4786 576.184 27.991 576.595 27.5804C577.005 27.1698 577.493 26.9645 578.058 26.9645H583.139V14.4149C583.139 13.8503 583.344 13.3626 583.755 12.952C584.166 12.5414 584.653 12.3361 585.218 12.3361H591.069C591.634 12.3361 592.121 12.5414 592.532 12.952C592.943 13.3626 593.148 13.8503 593.148 14.4149V26.9645H603.08C603.644 26.9645 604.132 27.1698 604.543 27.5804C604.953 27.991 605.159 28.4786 605.159 29.0432V34.1247C605.159 34.6893 604.953 35.1769 604.543 35.5875C604.132 35.9981 603.644 36.2034 603.08 36.2034H593.148V52.5256Z" fill="#C23AB6"/>
</g>
<defs>
<clipPath id="clip0">
<rect width="608" height="105" fill="white"/>
</clipPath>
</defs>
</svg>
