<svg width="636" height="105" viewBox="0 0 636 105" fill="none" xmlns="http://www.w3.org/2000/svg">
<g clip-path="url(#clip0)">
<path d="M3.25391 87.0977H24.2539" stroke="#00B416" stroke-width="6.50704" stroke-linecap="round"/>
<path d="M79.1689 86.7578H100.169" stroke="#00B416" stroke-width="6.50704" stroke-linecap="round"/>
<path d="M89.6675 97.2539V76.2539" stroke="#00B416" stroke-width="6.50704" stroke-linecap="round"/>
<path d="M135.071 100V73.915H153.127V76.949H138.771V85.163H146.726C149.563 85.163 151.758 85.7797 153.312 87.013C154.891 88.2463 155.68 90.084 155.68 92.526C155.68 94.968 154.891 96.8303 153.312 98.113C151.758 99.371 149.563 100 146.726 100H135.071ZM138.771 96.966H146.319C148.243 96.966 149.661 96.6083 150.574 95.893C151.487 95.153 151.943 94.043 151.943 92.563C151.943 91.083 151.487 89.9853 150.574 89.27C149.661 88.5547 148.243 88.197 146.319 88.197H138.771V96.966ZM166.656 108.399L165.768 105.365C166.927 105.118 167.889 104.822 168.654 104.477C169.443 104.132 170.097 103.675 170.615 103.108C171.133 102.565 171.577 101.862 171.947 100.999L172.872 98.816L172.798 100.333L164.695 81.352H168.691L174.981 96.892H173.982L180.272 81.352H184.12L175.573 101.332C175.03 102.565 174.45 103.601 173.834 104.44C173.217 105.279 172.551 105.957 171.836 106.475C171.12 106.993 170.331 107.4 169.468 107.696C168.604 107.992 167.667 108.226 166.656 108.399ZM192.152 104.81V97.114H194.224C195.038 95.8807 195.63 94.4377 196 92.785C196.37 91.1323 196.555 89.1343 196.555 86.791V81.352H210.208V97.114H213.205V104.81H209.986V100H195.371V104.81H192.152ZM197.665 97.151H206.693V84.238H199.774V87.531C199.774 89.3317 199.589 91.0953 199.219 92.822C198.874 94.524 198.356 95.967 197.665 97.151ZM223.94 100V81.352H227.64V87.864H232.931C235.373 87.864 237.211 88.382 238.444 89.418C239.677 90.4293 240.294 91.9093 240.294 93.858C240.294 95.116 240.01 96.2137 239.443 97.151C238.876 98.0637 238.037 98.7667 236.927 99.26C235.842 99.7533 234.51 100 232.931 100H223.94ZM227.64 97.447H232.524C233.905 97.447 234.966 97.1633 235.706 96.596C236.446 96.004 236.816 95.1037 236.816 93.895C236.816 92.6863 236.446 91.8107 235.706 91.268C234.991 90.7007 233.93 90.417 232.524 90.417H227.64V97.447ZM268.424 100V81.352H277.822C279.327 81.352 280.56 81.5493 281.522 81.944C282.509 82.314 283.236 82.869 283.705 83.609C284.174 84.3243 284.408 85.2 284.408 86.236C284.408 87.4447 284.001 88.4437 283.187 89.233C282.398 90.0223 281.349 90.5033 280.042 90.676V90.195C281.596 90.269 282.817 90.7253 283.705 91.564C284.593 92.4027 285.037 93.488 285.037 94.82C285.037 96.4233 284.433 97.6937 283.224 98.631C282.04 99.5437 280.35 100 278.155 100H268.424ZM271.939 97.595H277.859C279.068 97.595 279.993 97.3483 280.634 96.855C281.275 96.337 281.596 95.597 281.596 94.635C281.596 93.673 281.275 92.9453 280.634 92.452C279.993 91.9587 279.068 91.712 277.859 91.712H271.939V97.595ZM271.939 89.307H277.452C278.562 89.307 279.425 89.0603 280.042 88.567C280.659 88.0737 280.967 87.3953 280.967 86.532C280.967 85.644 280.659 84.9657 280.042 84.497C279.425 84.0037 278.562 83.757 277.452 83.757H271.939V89.307ZM296.483 100V81.352H299.591L306.325 93.266L313.059 81.352H316.167V100H312.874V85.533H313.688L307.213 97.003H305.437L298.962 85.533H299.776V100H296.483ZM337.575 100.333C335.553 100.333 333.814 99.9507 332.358 99.186C330.928 98.4213 329.818 97.3237 329.028 95.893C328.264 94.4377 327.881 92.711 327.881 90.713C327.881 88.7643 328.251 87.0623 328.991 85.607C329.756 84.1517 330.804 83.0293 332.136 82.24C333.493 81.426 335.059 81.019 336.835 81.019C338.587 81.019 340.054 81.389 341.238 82.129C342.422 82.869 343.323 83.9173 343.939 85.274C344.556 86.606 344.864 88.1847 344.864 90.01V91.194H330.804V89.048H342.311L341.682 89.529C341.682 87.679 341.263 86.2483 340.424 85.237C339.61 84.201 338.426 83.683 336.872 83.683C335.713 83.683 334.726 83.9543 333.912 84.497C333.123 85.0397 332.519 85.8167 332.099 86.828C331.68 87.8147 331.47 89.011 331.47 90.417V90.787C331.47 92.9823 332.001 94.635 333.061 95.745C334.147 96.855 335.676 97.41 337.649 97.41C338.735 97.41 339.746 97.262 340.683 96.966C341.645 96.6453 342.558 96.1273 343.421 95.412L344.642 97.965C343.779 98.7297 342.731 99.3217 341.497 99.741C340.264 100.136 338.957 100.333 337.575 100.333ZM364.793 100.333C362.918 100.333 361.278 99.9507 359.872 99.186C358.491 98.3967 357.418 97.2743 356.653 95.819C355.913 94.339 355.543 92.5877 355.543 90.565C355.543 88.567 355.925 86.8527 356.69 85.422C357.455 83.9913 358.528 82.906 359.909 82.166C361.29 81.4013 362.918 81.019 364.793 81.019C366.002 81.019 367.173 81.2287 368.308 81.648C369.443 82.0427 370.38 82.61 371.12 83.35L369.899 85.977C369.208 85.311 368.431 84.8177 367.568 84.497C366.705 84.1517 365.866 83.979 365.052 83.979C363.276 83.979 361.882 84.5463 360.871 85.681C359.86 86.8157 359.354 88.456 359.354 90.602C359.354 92.7727 359.86 94.4377 360.871 95.597C361.882 96.7563 363.276 97.336 365.052 97.336C365.841 97.336 366.668 97.188 367.531 96.892C368.394 96.5713 369.184 96.0657 369.899 95.375L371.12 98.002C370.355 98.742 369.393 99.3217 368.234 99.741C367.099 100.136 365.952 100.333 364.793 100.333ZM386.391 100V84.349H379.805V81.352H396.714V84.349H390.091V100H386.391ZM415.538 100.333C413.516 100.333 411.777 99.9507 410.321 99.186C408.891 98.4213 407.781 97.3237 406.991 95.893C406.227 94.4377 405.844 92.711 405.844 90.713C405.844 88.7643 406.214 87.0623 406.954 85.607C407.719 84.1517 408.767 83.0293 410.099 82.24C411.456 81.426 413.022 81.019 414.798 81.019C416.55 81.019 418.017 81.389 419.201 82.129C420.385 82.869 421.286 83.9173 421.902 85.274C422.519 86.606 422.827 88.1847 422.827 90.01V91.194H408.767V89.048H420.274L419.645 89.529C419.645 87.679 419.226 86.2483 418.387 85.237C417.573 84.201 416.389 83.683 414.835 83.683C413.676 83.683 412.689 83.9543 411.875 84.497C411.086 85.0397 410.482 85.8167 410.062 86.828C409.643 87.8147 409.433 89.011 409.433 90.417V90.787C409.433 92.9823 409.964 94.635 411.024 95.745C412.11 96.855 413.639 97.41 415.612 97.41C416.698 97.41 417.709 97.262 418.646 96.966C419.608 96.6453 420.521 96.1273 421.384 95.412L422.605 97.965C421.742 98.7297 420.694 99.3217 419.46 99.741C418.227 100.136 416.92 100.333 415.538 100.333ZM459.65 100.333C457.776 100.333 456.135 99.9507 454.729 99.186C453.348 98.3967 452.275 97.2743 451.51 95.819C450.77 94.339 450.4 92.5877 450.4 90.565C450.4 88.567 450.783 86.8527 451.547 85.422C452.312 83.9913 453.385 82.906 454.766 82.166C456.148 81.4013 457.776 81.019 459.65 81.019C460.859 81.019 462.031 81.2287 463.165 81.648C464.3 82.0427 465.237 82.61 465.977 83.35L464.756 85.977C464.066 85.311 463.289 84.8177 462.425 84.497C461.562 84.1517 460.723 83.979 459.909 83.979C458.133 83.979 456.74 84.5463 455.728 85.681C454.717 86.8157 454.211 88.456 454.211 90.602C454.211 92.7727 454.717 94.4377 455.728 95.597C456.74 96.7563 458.133 97.336 459.909 97.336C460.699 97.336 461.525 97.188 462.388 96.892C463.252 96.5713 464.041 96.0657 464.756 95.375L465.977 98.002C465.213 98.742 464.251 99.3217 463.091 99.741C461.957 100.136 460.81 100.333 459.65 100.333ZM494.147 100V81.352H497.847V88.937H507.282V81.352H510.982V100H507.282V91.86H497.847V100H494.147ZM530.941 100.333C529.288 100.333 527.845 99.9507 526.612 99.186C525.378 98.4213 524.416 97.3113 523.726 95.856C523.06 94.4007 522.727 92.674 522.727 90.676C522.727 88.6533 523.06 86.9267 523.726 85.496C524.416 84.0653 525.378 82.9677 526.612 82.203C527.845 81.4137 529.288 81.019 530.941 81.019C532.569 81.019 533.987 81.426 535.196 82.24C536.404 83.054 537.206 84.164 537.601 85.57H537.194L537.564 81.352H541.19C541.116 82.1167 541.042 82.8813 540.968 83.646C540.918 84.386 540.894 85.1137 540.894 85.829V100H537.157V95.856H537.564C537.169 97.2373 536.355 98.335 535.122 99.149C533.913 99.9383 532.519 100.333 530.941 100.333ZM531.866 97.41C533.469 97.41 534.752 96.8427 535.714 95.708C536.7 94.5733 537.194 92.896 537.194 90.676C537.194 88.456 536.7 86.791 535.714 85.681C534.752 84.5463 533.469 83.979 531.866 83.979C530.238 83.979 528.93 84.5463 527.944 85.681C526.982 86.791 526.501 88.456 526.501 90.676C526.501 92.896 526.982 94.5733 527.944 95.708C528.906 96.8427 530.213 97.41 531.866 97.41ZM553.662 100V81.352H556.77L563.504 93.266L570.238 81.352H573.346V100H570.053V85.533H570.867L564.392 97.003H562.616L556.141 85.533H556.955V100H553.662ZM585.985 100V81.352H589.389V96.411H588.353L599.601 81.352H602.709V100H599.342V84.904H600.415L589.093 100H585.985ZM615.789 92.785L614.605 73.915H619.23L618.083 92.785H615.789ZM614.716 100V95.597H619.119V100H614.716Z" fill="#EAFE03"/>
<path d="M135.005 68V13.721H158.719C164.673 13.721 169.267 15.1326 172.5 17.9556C175.785 20.7786 177.428 24.7052 177.428 29.7353C177.428 33.0716 176.683 35.9202 175.195 38.2813C173.758 40.6424 171.679 42.4645 168.959 43.7477C166.238 44.9796 163.03 45.5955 159.335 45.5955L160.412 44.1327H163.03C165.186 44.1327 167.111 44.6973 168.805 45.8265C170.498 46.9557 171.884 48.6752 172.962 50.9849L180.892 68H169.959L161.952 50.369C161.234 48.5725 160.13 47.392 158.642 46.8274C157.205 46.2628 155.459 45.9805 153.406 45.9805H144.937V68H135.005ZM144.937 38.6663H157.102C160.592 38.6663 163.236 37.9477 165.032 36.5105C166.88 35.022 167.804 32.8662 167.804 30.0432C167.804 27.2202 166.88 25.0901 165.032 23.6529C163.236 22.2158 160.592 21.4972 157.102 21.4972H144.937V38.6663ZM203.383 68.7699C199.996 68.7699 197.019 67.9743 194.452 66.3832C191.886 64.7407 189.884 62.4053 188.447 59.377C187.01 56.3486 186.291 52.73 186.291 48.5212C186.291 44.3123 187.01 40.7194 188.447 37.7424C189.884 34.714 191.886 32.4043 194.452 30.8131C197.019 29.1707 199.996 28.3494 203.383 28.3494C206.668 28.3494 209.543 29.1707 212.006 30.8131C214.521 32.4043 216.19 34.5601 217.011 37.2804H216.164L217.011 29.1193H226.25C226.096 30.7105 225.942 32.3273 225.788 33.9698C225.685 35.6123 225.634 37.2291 225.634 38.8203V68H216.087L216.01 59.9929H216.934C216.113 62.6619 214.444 64.792 211.929 66.3832C209.414 67.9743 206.566 68.7699 203.383 68.7699ZM206.078 61.3787C209.106 61.3787 211.544 60.3265 213.392 58.2221C215.24 56.0663 216.164 52.8327 216.164 48.5212C216.164 44.2097 215.24 41.0017 213.392 38.8972C211.544 36.7928 209.106 35.7406 206.078 35.7406C203.05 35.7406 200.612 36.7928 198.764 38.8972C196.916 41.0017 195.992 44.2097 195.992 48.5212C195.992 52.8327 196.89 56.0663 198.687 58.2221C200.535 60.3265 202.998 61.3787 206.078 61.3787ZM251.204 68.7699C247.816 68.7699 244.814 67.9743 242.196 66.3832C239.63 64.7407 237.628 62.4053 236.191 59.377C234.754 56.3486 234.035 52.73 234.035 48.5212C234.035 44.3123 234.754 40.7194 236.191 37.7424C237.628 34.714 239.63 32.4043 242.196 30.8131C244.814 29.1707 247.816 28.3494 251.204 28.3494C254.438 28.3494 257.286 29.145 259.75 30.7362C262.265 32.276 263.933 34.3804 264.755 37.0494H263.754V11.3343H273.378V68H263.908V59.7619H264.832C264.01 62.5336 262.342 64.7407 259.827 66.3832C257.363 67.9743 254.489 68.7699 251.204 68.7699ZM253.899 61.3787C256.927 61.3787 259.365 60.3265 261.213 58.2221C263.061 56.0663 263.985 52.8327 263.985 48.5212C263.985 44.2097 263.061 41.0017 261.213 38.8972C259.365 36.7928 256.927 35.7406 253.899 35.7406C250.87 35.7406 248.407 36.7928 246.508 38.8972C244.66 41.0017 243.736 44.2097 243.736 48.5212C243.736 52.8327 244.66 56.0663 246.508 58.2221C248.407 60.3265 250.87 61.3787 253.899 61.3787ZM283.857 68V29.1193H293.481V68H283.857ZM283.318 21.8051V12.4122H294.02V21.8051H283.318ZM321.486 68.7699C317.483 68.7699 314.018 67.9487 311.093 66.3062C308.167 64.6637 305.883 62.3283 304.24 59.3C302.649 56.2716 301.854 52.6787 301.854 48.5212C301.854 44.3636 302.649 40.7964 304.24 37.8194C305.883 34.791 308.167 32.4556 311.093 30.8131C314.018 29.1707 317.483 28.3494 321.486 28.3494C325.49 28.3494 328.955 29.1707 331.88 30.8131C334.857 32.4556 337.141 34.791 338.732 37.8194C340.375 40.7964 341.196 44.3636 341.196 48.5212C341.196 52.6787 340.375 56.2716 338.732 59.3C337.141 62.3283 334.857 64.6637 331.88 66.3062C328.955 67.9487 325.49 68.7699 321.486 68.7699ZM321.486 61.3787C324.515 61.3787 326.927 60.3265 328.724 58.2221C330.52 56.0663 331.418 52.8327 331.418 48.5212C331.418 44.2097 330.52 41.0017 328.724 38.8972C326.927 36.7928 324.515 35.7406 321.486 35.7406C318.458 35.7406 316.046 36.7928 314.249 38.8972C312.453 41.0017 311.554 44.2097 311.554 48.5212C311.554 52.8327 312.453 56.0663 314.249 58.2221C316.046 60.3265 318.458 61.3787 321.486 61.3787ZM371.393 68V13.721H391.103C397.313 13.721 402.549 14.7989 406.809 16.9547C411.121 19.0591 414.38 22.1388 416.587 26.1937C418.794 30.1972 419.898 35.0733 419.898 40.822C419.898 46.5194 418.794 51.3955 416.587 55.4504C414.38 59.5053 411.121 62.6106 406.809 64.7664C402.549 66.9221 397.313 68 391.103 68H371.393ZM381.325 59.7619H390.487C397.057 59.7619 401.933 58.1964 405.115 55.0654C408.298 51.9345 409.889 47.1867 409.889 40.822C409.889 34.4061 408.298 29.6583 405.115 26.5786C401.933 23.4476 397.057 21.8821 390.487 21.8821H381.325V59.7619ZM448.055 68.7699C443.692 68.7699 439.945 67.9743 436.814 66.3832C433.734 64.7407 431.348 62.4053 429.654 59.377C428.011 56.3486 427.19 52.7557 427.19 48.5982C427.19 44.5433 427.986 41.0017 429.577 37.9733C431.168 34.945 433.375 32.5839 436.198 30.8901C439.072 29.1963 442.409 28.3494 446.207 28.3494C449.954 28.3494 453.085 29.145 455.6 30.7362C458.115 32.3273 460.014 34.5601 461.297 37.4344C462.632 40.3088 463.299 43.6707 463.299 47.5203V50.061H434.966V44.9796H456.447L455.138 46.0574C455.138 42.4645 454.368 39.7185 452.828 37.8194C451.34 35.9202 449.158 34.9707 446.284 34.9707C444.128 34.9707 442.306 35.484 440.818 36.5105C439.38 37.5371 438.277 38.9999 437.507 40.899C436.737 42.7981 436.352 45.1079 436.352 47.8282V48.8291C436.352 53.038 437.379 56.1946 439.432 58.2991C441.536 60.3522 444.488 61.3787 448.286 61.3787C450.493 61.3787 452.546 61.0964 454.445 60.5318C456.396 59.9159 458.243 58.9407 459.989 57.6062L462.837 64.0734C460.989 65.5619 458.782 66.7168 456.216 67.5381C453.65 68.3593 450.929 68.7699 448.055 68.7699ZM488.154 68.7699C483.535 68.7699 480.044 67.5637 477.683 65.1513C475.322 62.7389 474.142 59.1203 474.142 54.2955V36.3565H466.674V29.1193H474.142V19.1874L483.766 16.7237V29.1193H494.159V36.3565H483.766V53.6796C483.766 56.3486 484.279 58.2221 485.305 59.3C486.332 60.3778 487.744 60.9168 489.54 60.9168C490.515 60.9168 491.336 60.8398 492.004 60.6858C492.722 60.5318 493.415 60.3265 494.082 60.0699V67.692C493.21 68.0513 492.235 68.308 491.157 68.4619C490.13 68.6673 489.129 68.7699 488.154 68.7699ZM500.62 68V39.0512C500.62 37.4087 500.568 35.7406 500.466 34.0468C500.414 32.353 500.286 30.7105 500.081 29.1193H509.397L510.474 39.7441H508.935C509.448 37.1778 510.295 35.0477 511.475 33.3539C512.707 31.6601 514.196 30.4025 515.941 29.5813C517.686 28.76 519.585 28.3494 521.638 28.3494C522.562 28.3494 523.306 28.4007 523.871 28.5034C524.436 28.5547 525 28.683 525.565 28.8884L525.488 37.3574C524.513 36.9468 523.666 36.6902 522.947 36.5875C522.28 36.4848 521.433 36.4335 520.406 36.4335C518.199 36.4335 516.326 36.8955 514.786 37.8194C513.297 38.7433 512.168 40.0265 511.398 41.6689C510.68 43.3114 510.32 45.1849 510.32 47.2893V68H500.62ZM548.1 68.7699C544.096 68.7699 540.632 67.9487 537.706 66.3062C534.78 64.6637 532.496 62.3283 530.854 59.3C529.263 56.2716 528.467 52.6787 528.467 48.5212C528.467 44.3636 529.263 40.7964 530.854 37.8194C532.496 34.791 534.78 32.4556 537.706 30.8131C540.632 29.1707 544.096 28.3494 548.1 28.3494C552.103 28.3494 555.568 29.1707 558.494 30.8131C561.471 32.4556 563.755 34.791 565.346 37.8194C566.988 40.7964 567.81 44.3636 567.81 48.5212C567.81 52.6787 566.988 56.2716 565.346 59.3C563.755 62.3283 561.471 64.6637 558.494 66.3062C555.568 67.9487 552.103 68.7699 548.1 68.7699ZM548.1 61.3787C551.128 61.3787 553.54 60.3265 555.337 58.2221C557.133 56.0663 558.032 52.8327 558.032 48.5212C558.032 44.2097 557.133 41.0017 555.337 38.8972C553.54 36.7928 551.128 35.7406 548.1 35.7406C545.071 35.7406 542.659 36.7928 540.863 38.8972C539.066 41.0017 538.168 44.2097 538.168 48.5212C538.168 52.8327 539.066 56.0663 540.863 58.2221C542.659 60.3265 545.071 61.3787 548.1 61.3787ZM576.109 68V29.1193H585.733V68H576.109ZM575.57 21.8051V12.4122H586.272V21.8051H575.57ZM612.814 68.7699C608.195 68.7699 604.704 67.5637 602.343 65.1513C599.982 62.7389 598.802 59.1203 598.802 54.2955V36.3565H591.333V29.1193H598.802V19.1874L608.426 16.7237V29.1193H618.819V36.3565H608.426V53.6796C608.426 56.3486 608.939 58.2221 609.965 59.3C610.992 60.3778 612.403 60.9168 614.2 60.9168C615.175 60.9168 615.996 60.8398 616.664 60.6858C617.382 60.5318 618.075 60.3265 618.742 60.0699V67.692C617.87 68.0513 616.895 68.308 615.817 68.4619C614.79 68.6673 613.789 68.7699 612.814 68.7699Z" fill="#00B416"/>
<rect y="41" width="16" height="25" fill="url(#paint0_linear)"/>
<rect x="28.1885" y="31" width="16" height="35" fill="url(#paint1_linear)"/>
<rect x="56.3799" y="21" width="16" height="45" fill="url(#paint2_linear)"/>
<rect x="83.4839" y="11" width="16" height="55" fill="url(#paint3_linear)"/>
</g>
<defs>
<linearGradient id="paint0_linear" x1="8" y1="41" x2="8" y2="66" gradientUnits="userSpaceOnUse">
<stop offset="0.203125" stop-color="#F1FF4E"/>
<stop offset="0.46875" stop-color="#00B416"/>
<stop offset="0.625" stop-color="#2090DB"/>
<stop offset="0.859375" stop-color="#D56ADE"/>
</linearGradient>
<linearGradient id="paint1_linear" x1="36.1885" y1="31" x2="36.1885" y2="66" gradientUnits="userSpaceOnUse">
<stop offset="0.203125" stop-color="#F1FF4E"/>
<stop offset="0.46875" stop-color="#00B416"/>
<stop offset="0.625" stop-color="#2090DB"/>
<stop offset="0.859375" stop-color="#D56ADE"/>
</linearGradient>
<linearGradient id="paint2_linear" x1="64.3799" y1="21" x2="64.3799" y2="66" gradientUnits="userSpaceOnUse">
<stop offset="0.203125" stop-color="#F1FF4E"/>
<stop offset="0.46875" stop-color="#00B416"/>
<stop offset="0.625" stop-color="#2090DB"/>
<stop offset="0.859375" stop-color="#D56ADE"/>
</linearGradient>
<linearGradient id="paint3_linear" x1="91.4839" y1="11" x2="91.4839" y2="66" gradientUnits="userSpaceOnUse">
<stop offset="0.203125" stop-color="#F1FF4E"/>
<stop offset="0.46875" stop-color="#00B416"/>
<stop offset="0.625" stop-color="#2090DB"/>
<stop offset="0.859375" stop-color="#D56ADE"/>
</linearGradient>
<clipPath id="clip0">
<rect width="636" height="105" fill="white"/>
</clipPath>
</defs>
</svg>
